<svg width="173" height="38" viewBox="0 0 173 38" fill="none" xmlns="http://www.w3.org/2000/svg">
<path d="M95.0833 20.388C95.0833 18.0159 95.0833 15.112 95.0833 12.7398C95.0833 9.59059 95.0833 6.44133 95.0833 3.29208C95.0833 1.5334 95.5417 1.08351 97.3333 1.08351C99.0833 1.08351 100.833 1.04261 102.583 1.08351C104.5 1.08351 104.958 1.5334 105 3.45568C105 5.45975 104.917 7.46382 104.917 9.46789C104.958 17.3615 105 25.2142 105 33.1077C105 36.9523 104.917 36.9932 101 36.9932C99.625 36.9932 98.2917 36.9523 96.9167 36.9932C95.2917 37.075 94.3333 36.4206 93.5417 35.03C90.3333 29.3859 87 23.7418 83.75 18.1386C83.6667 18.0159 83.3333 17.566 83.0833 17.3615C82.9583 17.9341 82.9583 19.1201 82.9583 19.7745C82.9167 24.7234 82.9583 29.7131 82.9167 34.6619C82.9167 36.6251 82.625 36.9114 80.6667 36.9523C78.875 36.9932 77.0833 36.9932 75.25 36.9523C73.4583 36.9523 73 36.5024 73 34.7028C73.0417 28.8951 73.0833 23.0465 73.125 17.2388C73.125 12.4126 73.125 7.58652 73.0833 2.80129C73.0833 1.5743 73.5833 1.00171 74.7917 1.00171C77.0833 1.00171 79.375 1.04261 81.6667 1.00171C82.9583 0.960813 83.6667 1.6561 84.2917 2.71949C87.2917 7.95461 90.3333 13.1897 93.375 18.384C93.7083 18.9565 94.125 19.4473 94.5417 19.979C94.6667 20.2244 94.875 20.4289 95.0833 20.388Z" fill="#494B9B"/>
<path d="M63.6801 0.192816C63.6801 0.192816 65.3365 0.362543 65.6193 0.617134C65.9021 0.871724 65.9829 2.14468 66.0637 2.65386C66.2657 4.05411 66.1445 5.1149 66.1041 5.92111C66.0233 7.66081 65.4577 8.21242 63.8013 8.21242C59.6401 8.21242 55.5193 8.21242 51.3582 8.21242C50.5502 8.21242 49.7422 8.25485 49.015 8.55188C47.803 9.06106 47.3586 10.5037 47.6818 12.4132C47.9242 13.8134 48.6514 14.7045 50.025 14.7469C53.1358 14.8742 56.2465 14.8742 59.3573 14.9591C60.5289 15.0015 61.7409 15.0439 62.8721 15.2985C66.3061 16.0623 68.3261 18.4809 68.7301 22.0876C69.0533 24.7608 69.0937 27.5613 68.8109 30.2345C68.2453 35.199 65.1345 38.042 60.3673 37.9995C54.6306 37.9147 48.8938 37.5752 43.1166 37.3206C42.2278 37.2782 41.339 37.1933 40.4502 37.1085C39.2382 37.0236 38.511 36.4296 38.511 35.0717C38.511 33.8412 38.4706 32.6107 38.511 31.3377C38.5514 29.7253 38.9554 29.301 40.531 29.3859C44.8538 29.5556 49.1766 29.8102 53.5398 30.0224C54.7518 30.0648 56.0041 30.0648 57.2161 30.0224C58.5897 29.9799 59.2765 29.1313 59.4381 27.8159C59.5593 26.9248 59.4785 26.0338 59.5189 25.1427C59.5593 23.9122 58.9937 23.4879 57.8625 23.4879C54.4286 23.4879 50.9542 23.5727 47.5202 23.403C46.0254 23.3606 44.5306 23.0211 43.1166 22.4695C40.4906 21.4511 38.915 19.3295 38.4302 16.4442C37.8646 13.0921 37.7838 9.7824 38.6322 6.43029C39.117 4.60572 39.9654 3.20547 41.137 2.18711C42.349 1.16875 43.6418 0.829293 44.8942 0.617134C49.1766 -0.18907 52.7318 -0.019343 55.3578 0.107952C57.3373 0.150384 63.6801 0.192816 63.6801 0.192816Z" fill="#494B9B"/>
<path d="M18.6414 24.4409C18.8477 23.9909 19.0954 23.3773 19.2605 22.9273C21.6544 16.1773 24.0071 9.42727 26.3597 2.63636C26.7312 1.53182 27.3916 1 28.5885 1C30.8587 1.04091 33.1288 1 35.3989 1.04091C36.9673 1.08182 37.2975 1.65455 36.7609 3.16818C34.4495 9.18182 32.1794 15.2364 29.9093 21.25C28.0107 25.9955 26.1946 30.7 24.4198 35.4045C24.0071 36.5091 23.3054 36.9591 22.1084 36.9591C19.7145 36.9182 17.2793 36.9591 14.8854 37C13.7297 37 13.0693 36.55 12.6153 35.4455C8.77672 25.3 4.85563 15.1955 0.975813 5.05C0.686891 4.31364 0.397968 3.53636 0.150321 2.8C-0.262426 1.69545 0.191595 1.12273 1.30601 1.08182C3.82376 1.04091 6.30024 1.08182 8.81799 1.04091C9.89114 1.04091 10.3039 1.77727 10.5928 2.63636C12.7391 8.73182 14.8441 14.7864 16.9904 20.8818C17.4031 22.0273 17.981 23.6227 18.3937 24.7273C18.5175 24.7273 18.5175 24.6045 18.6414 24.4409Z" fill="#494B9B"/>
<path d="M113.363 0.476074H116.58C117.034 0.476074 117.488 0.559326 117.859 0.767456C118.23 0.975586 118.56 1.22534 118.766 1.55835C118.973 1.89136 119.096 2.26599 119.096 2.64063C119.096 3.05689 119.014 3.43152 118.808 3.7229C118.601 4.01429 118.354 4.26404 118.024 4.43055V4.5138C118.436 4.6803 118.808 4.93006 119.055 5.26307C119.302 5.59607 119.426 6.01233 119.426 6.47022C119.426 6.92811 119.302 7.34437 119.055 7.67738C118.808 8.01038 118.478 8.30177 118.065 8.5099C117.653 8.71803 117.199 8.80128 116.704 8.80128H113.363V0.476074ZM116.498 3.84778C116.828 3.84778 117.117 3.76453 117.323 3.5564C117.529 3.34827 117.611 3.14014 117.611 2.84876C117.611 2.55737 117.529 2.34925 117.323 2.14111C117.117 1.93298 116.869 1.84973 116.539 1.84973H114.931V3.84778H116.498ZM116.663 7.38599C117.034 7.38599 117.323 7.30274 117.529 7.09461C117.735 6.88648 117.859 6.63672 117.859 6.30372C117.859 5.97071 117.735 5.72095 117.529 5.51282C117.323 5.30469 116.993 5.22144 116.622 5.22144H114.931V7.38599H116.663Z" fill="black"/>
<path d="M121.818 8.59314C121.323 8.30176 120.952 7.92713 120.705 7.46924C120.457 7.01136 120.292 6.47022 120.292 5.84583C120.292 5.26306 120.416 4.72193 120.705 4.22241C120.952 3.7229 121.323 3.34827 121.818 3.09851C122.313 2.84876 122.849 2.68225 123.427 2.68225C124.045 2.68225 124.582 2.80713 125.035 3.09851C125.489 3.38989 125.901 3.76453 126.149 4.22241C126.396 4.72193 126.561 5.22144 126.561 5.84583C126.561 6.42859 126.437 6.96973 126.149 7.46924C125.901 7.92713 125.53 8.34339 125.035 8.59314C124.54 8.88453 124.004 9.00941 123.427 9.00941C122.849 9.00941 122.313 8.8429 121.818 8.59314ZM124.252 7.38599C124.499 7.26111 124.705 7.05298 124.829 6.7616C124.994 6.51184 125.035 6.17884 125.035 5.84583C125.035 5.51282 124.953 5.17981 124.829 4.93006C124.664 4.6803 124.499 4.47217 124.252 4.30567C124.004 4.13916 123.715 4.09754 123.427 4.09754C123.138 4.09754 122.849 4.18079 122.602 4.30567C122.354 4.43054 122.148 4.63867 122.024 4.93006C121.859 5.17981 121.818 5.51282 121.818 5.84583C121.818 6.17884 121.901 6.51184 122.024 6.7616C122.189 7.01136 122.354 7.21949 122.602 7.38599C122.849 7.5525 123.138 7.59412 123.427 7.59412C123.715 7.59412 124.004 7.51087 124.252 7.38599Z" fill="black"/>
<path d="M127.345 8.80128V7.46924C127.469 7.51087 127.592 7.51087 127.757 7.51087C128.005 7.51087 128.17 7.38599 128.252 7.13623C128.335 6.88648 128.376 6.42859 128.376 5.76258V2.84875H133.614V8.80128H132.17V4.22241H129.82V6.17884C129.82 7.17786 129.655 7.8855 129.366 8.30176C129.036 8.71802 128.624 8.92615 128.046 8.92615C127.716 8.88453 127.51 8.88453 127.345 8.80128Z" fill="black"/>
<path d="M135.057 2.84875H136.584V5.38794L136.501 6.51184H136.584L139.017 2.84875H140.502V8.80128H139.017V6.26209L139.099 5.13819H139.017L136.584 8.80128H135.057V2.84875Z" fill="black"/>
<path d="M141.986 2.84875H143.512V5.05493H146.069V2.84875H147.554V8.80128H146.069V6.51184H143.512V8.80128H141.986V2.84875Z" fill="black"/>
<path d="M150.194 8.59315C149.74 8.34339 149.369 7.96876 149.08 7.46924C148.833 6.96973 148.668 6.42859 148.668 5.84583C148.668 5.26306 148.791 4.6803 149.08 4.22241C149.328 3.76453 149.699 3.38989 150.194 3.09851C150.647 2.80713 151.184 2.68225 151.802 2.68225C152.462 2.68225 152.998 2.80713 153.493 3.09851C153.947 3.38989 154.318 3.76453 154.524 4.30567L153.122 4.88843C152.875 4.34729 152.421 4.09754 151.802 4.09754C151.349 4.09754 150.977 4.26404 150.647 4.55542C150.359 4.88843 150.194 5.30469 150.194 5.8042C150.194 6.34534 150.359 6.7616 150.647 7.09461C150.936 7.42762 151.307 7.5525 151.802 7.5525C152.421 7.5525 152.916 7.26111 153.204 6.71998L154.566 7.34437C154.318 7.8855 153.947 8.26014 153.493 8.55152C153.04 8.8429 152.462 8.96778 151.802 8.96778C151.184 9.00941 150.647 8.8429 150.194 8.59315Z" fill="black"/>
<path d="M155.638 2.84875H157.081V4.8468H158.566C159.226 4.8468 159.762 5.01331 160.133 5.38794C160.546 5.72095 160.752 6.22046 160.752 6.84485C160.752 7.46924 160.546 7.92713 160.133 8.30176C159.721 8.63477 159.226 8.8429 158.566 8.8429H155.638V2.84875ZM158.484 7.59412C158.731 7.59412 158.937 7.51087 159.102 7.38599C159.267 7.26111 159.35 7.05298 159.35 6.80323C159.35 6.55347 159.267 6.34534 159.102 6.22046C158.937 6.09558 158.731 6.01233 158.484 6.01233H157.04V7.59412H158.484Z" fill="black"/>
<path d="M161.783 2.84875H163.309V5.42957H163.392L165.33 2.84875H167.104V2.93201L164.959 5.67932L167.186 8.71802V8.80128H165.413L163.35 5.97071H163.309V8.80128H161.783V2.84875Z" fill="black"/>
<path d="M168.176 8.42664C167.763 8.05201 167.557 7.59412 167.557 6.96973C167.557 6.55347 167.681 6.22046 167.887 5.92908C168.093 5.6377 168.382 5.38794 168.753 5.22144C169.125 5.05493 169.496 4.97168 169.949 4.97168C170.568 4.97168 171.063 5.05493 171.517 5.22144V4.97168C171.517 4.63867 171.393 4.38892 171.145 4.18079C170.898 3.97266 170.568 3.88941 170.156 3.88941C169.867 3.88941 169.619 3.97266 169.372 4.09754C169.125 4.22241 168.918 4.38892 168.712 4.59705L167.722 3.84778C168.011 3.47315 168.382 3.18176 168.795 2.97363C169.207 2.7655 169.702 2.68225 170.197 2.68225C171.104 2.68225 171.764 2.89038 172.259 3.30664C172.713 3.7229 172.96 4.34729 172.96 5.13819V8.80128H171.475V8.17689H171.393C171.228 8.42664 170.98 8.59315 170.692 8.75965C170.403 8.92615 170.073 8.96778 169.702 8.96778C169.083 9.00941 168.588 8.80128 168.176 8.42664ZM171.104 7.38599C171.352 7.09461 171.475 6.7616 171.475 6.38697C171.063 6.22046 170.651 6.09559 170.238 6.09559C169.454 6.09559 169.042 6.38697 169.042 6.96973C169.042 7.21949 169.125 7.42762 169.289 7.5525C169.454 7.719 169.702 7.76062 170.032 7.76062C170.527 7.80225 170.857 7.67737 171.104 7.38599Z" fill="black"/>
<path d="M115.096 22.413C114.436 22.0383 113.9 21.4972 113.528 20.8312C113.157 20.1652 112.951 19.4159 112.951 18.625C112.951 17.8341 113.157 17.0848 113.528 16.4188C113.9 15.7528 114.436 15.2117 115.096 14.837C115.755 14.4624 116.498 14.2543 117.281 14.2543C118.519 14.2543 119.55 14.7122 120.375 15.6279L119.261 16.7102C118.725 16.0858 118.065 15.7528 117.281 15.7528C116.787 15.7528 116.292 15.8777 115.879 16.1274C115.467 16.3772 115.137 16.7102 114.889 17.1265C114.642 17.5427 114.518 18.0422 114.518 18.625C114.518 19.2078 114.642 19.7073 114.889 20.1235C115.137 20.5398 115.467 20.9144 115.879 21.1226C116.292 21.3723 116.787 21.4972 117.281 21.4972C118.148 21.4972 118.89 21.1226 119.467 20.4149L120.581 21.4556C120.169 21.9551 119.674 22.3297 119.137 22.5795C118.56 22.8292 117.941 22.9541 117.281 22.9541C116.457 22.9957 115.755 22.7876 115.096 22.413Z" fill="#494B9B"/>
<path d="M121.406 22.7876V21.4556C121.529 21.4972 121.653 21.4972 121.818 21.4972C122.066 21.4972 122.231 21.3723 122.313 21.1226C122.396 20.8728 122.437 20.4149 122.437 19.7489V16.8351H127.675V22.7876H126.231V18.2504H123.88V20.1652C123.88 21.1642 123.715 21.8718 123.427 22.2881C123.097 22.7044 122.684 22.9125 122.107 22.9125C121.818 22.9125 121.571 22.8709 121.406 22.7876Z" fill="#494B9B"/>
<path d="M130.974 22.5378L128.5 16.8767H130.232L131.758 20.5814H131.84L133.325 16.8767H135.016L131.346 25.3268H129.737L130.974 22.5378Z" fill="#494B9B"/>
<path d="M135.14 22.7044L137.326 19.6657L135.222 16.96V16.8767H136.955L138.811 19.3743H138.893V16.8767H140.419V19.3743H140.502L142.357 16.8767H144.09V16.96L141.986 19.6657L144.172 22.7044V22.7876H142.44L140.46 19.9987H140.378V22.7876H138.852V19.9987H138.769L136.79 22.7876H135.057V22.7044H135.14Z" fill="#494B9B"/>
<path d="M145.739 21.9967C145.162 21.3307 144.873 20.3317 144.873 18.9996C144.873 17.2513 145.327 16.0442 146.193 15.3365C146.482 15.0868 146.812 14.9203 147.183 14.7954C147.554 14.6705 147.967 14.6289 148.379 14.6289C148.791 14.6289 149.039 14.5873 149.204 14.5457C149.328 14.504 149.451 14.4208 149.493 14.2543H150.812C150.771 14.837 150.524 15.2533 150.194 15.5031C149.823 15.7528 149.286 15.8361 148.544 15.8361C147.967 15.8361 147.513 15.9609 147.183 16.2523C146.729 16.5853 146.482 17.0432 146.399 17.626H146.482C146.688 17.3346 146.977 17.0848 147.307 16.9183C147.637 16.7518 148.049 16.6686 148.503 16.6686C148.998 16.6686 149.493 16.8351 149.905 17.0848C150.317 17.3762 150.647 17.7509 150.895 18.2504C151.142 18.7499 151.266 19.2494 151.266 19.8322C151.266 20.4149 151.142 20.9561 150.854 21.4556C150.606 21.9551 150.235 22.3297 149.74 22.5795C149.245 22.8709 148.709 22.9957 148.132 22.9957C147.1 22.9957 146.317 22.6627 145.739 21.9967ZM148.833 21.3723C149.08 21.2474 149.286 21.0393 149.41 20.7479C149.575 20.4982 149.616 20.1652 149.616 19.8322C149.616 19.4991 149.534 19.1661 149.41 18.9164C149.245 18.6666 149.08 18.4585 148.833 18.292C148.585 18.1255 148.296 18.0839 148.008 18.0839C147.719 18.0839 147.43 18.1671 147.183 18.292C146.935 18.4169 146.729 18.625 146.606 18.9164C146.441 19.1661 146.399 19.4991 146.399 19.8322C146.399 20.3733 146.564 20.7896 146.853 21.1226C147.183 21.4139 147.554 21.5805 148.008 21.5805C148.338 21.5805 148.585 21.4972 148.833 21.3723Z" fill="#494B9B"/>
<path d="M152.421 22.413C152.008 22.0383 151.802 21.5805 151.802 20.9561C151.802 20.5398 151.926 20.2068 152.132 19.9154C152.338 19.624 152.627 19.3743 152.998 19.2078C153.369 19.0413 153.741 18.958 154.194 18.958C154.813 18.958 155.308 19.0413 155.762 19.2078V18.958C155.762 18.625 155.638 18.3752 155.39 18.1671C155.143 17.959 154.813 17.8757 154.401 17.8757C154.112 17.8757 153.864 17.959 153.617 18.0839C153.369 18.2087 153.163 18.3752 152.957 18.5834L151.967 17.8341C152.256 17.4595 152.627 17.1681 153.04 16.96C153.452 16.7518 153.947 16.6686 154.442 16.6686C155.349 16.6686 156.009 16.8767 156.504 17.293C156.958 17.7092 157.205 18.3336 157.205 19.1245V22.7876H155.72V22.1632H155.638C155.473 22.413 155.225 22.5795 154.937 22.746C154.648 22.9125 154.318 22.9541 153.947 22.9541C153.369 22.9957 152.833 22.7876 152.421 22.413ZM155.39 21.3723C155.638 21.0809 155.762 20.7479 155.762 20.3733C155.349 20.2068 154.937 20.0819 154.524 20.0819C153.741 20.0819 153.328 20.3733 153.328 20.9561C153.328 21.2058 153.411 21.4139 153.576 21.5388C153.741 21.7053 153.988 21.747 154.318 21.747C154.772 21.7886 155.143 21.6637 155.39 21.3723Z" fill="#494B9B"/>
<path d="M113.363 28.99H114.931V32.3201H118.395V28.99H119.962V37.3152H118.395V33.777H114.931V37.3152H113.363V28.99Z" fill="black"/>
<path d="M122.849 37.1071C122.355 36.8157 121.983 36.441 121.736 35.9832C121.488 35.5253 121.323 34.9841 121.323 34.3597C121.323 33.777 121.447 33.2358 121.736 32.7363C121.983 32.2368 122.355 31.8622 122.849 31.6124C123.344 31.3627 123.881 31.1962 124.458 31.1962C125.077 31.1962 125.613 31.321 126.066 31.6124C126.52 31.9038 126.933 32.2784 127.18 32.7363C127.428 33.2358 127.592 33.7354 127.592 34.3597C127.592 34.9425 127.469 35.4836 127.18 35.9832C126.933 36.441 126.561 36.8573 126.066 37.1071C125.572 37.3984 125.035 37.5233 124.458 37.5233C123.839 37.5233 123.303 37.3568 122.849 37.1071ZM125.283 35.8999C125.53 35.775 125.737 35.5669 125.86 35.2755C126.025 35.0258 126.066 34.6928 126.066 34.3597C126.066 34.0267 125.984 33.6937 125.86 33.444C125.695 33.1942 125.53 32.9861 125.283 32.8196C125.035 32.6531 124.747 32.6115 124.458 32.6115C124.169 32.6115 123.881 32.6947 123.633 32.8196C123.386 32.9445 123.179 33.1526 123.056 33.444C122.891 33.6937 122.849 34.0267 122.849 34.3597C122.849 34.6928 122.932 35.0258 123.056 35.2755C123.221 35.5253 123.386 35.7334 123.633 35.8999C123.881 36.0664 124.169 36.108 124.458 36.108C124.747 36.108 125.035 36.0248 125.283 35.8999Z" fill="black"/>
<path d="M128.624 31.3627H131.676C132.005 31.3627 132.335 31.4459 132.624 31.5708C132.913 31.6957 133.119 31.9038 133.284 32.1119C133.449 32.3617 133.531 32.6115 133.531 32.8612C133.531 33.1526 133.449 33.444 133.325 33.6521C133.202 33.9019 133.037 34.0684 132.789 34.1516V34.2349C133.078 34.3597 133.284 34.5679 133.49 34.776C133.655 35.0258 133.738 35.2755 133.738 35.5669C133.738 35.8999 133.655 36.1913 133.449 36.441C133.243 36.6908 133.037 36.8989 132.748 37.0238C132.459 37.1487 132.17 37.2319 131.841 37.2319H128.624V31.3627ZM131.428 33.7354C131.593 33.7354 131.758 33.6937 131.882 33.5689C132.005 33.444 132.047 33.3191 132.047 33.1526C132.047 32.9861 132.005 32.8196 131.882 32.7363C131.758 32.6115 131.634 32.5698 131.428 32.5698H130.067V33.777H131.428V33.7354ZM131.676 36.108C131.882 36.108 132.047 36.0664 132.17 35.9415C132.294 35.8167 132.377 35.6502 132.377 35.4836C132.377 35.3171 132.294 35.1506 132.17 35.0258C132.047 34.9009 131.882 34.8176 131.676 34.8176H130.067V36.1497H131.676V36.108Z" fill="black"/>
<path d="M134.81 31.3627H136.336V33.9019L136.254 35.0258H136.336L138.769 31.3627H140.254V37.3152H138.769V34.776L138.852 33.6521H138.769L136.336 37.3152H134.81V31.3627Z" fill="black"/>
<path d="M141.78 31.3627H143.306V33.5689H145.863V31.3627H147.348V37.3152H145.863V35.0258H143.306V37.3152H141.78V31.3627Z" fill="black"/>
</svg>
